<svg xmlns="http://www.w3.org/2000/svg" viewBox="0 0 512 512">
  <rect width="512" height="512" rx="96" fill="#101820"/>
  <circle cx="384" cy="116" r="54" fill="#f2c14e"/>
  <path d="M64 364c68-52 130-70 196-45 66 25 119 15 188-35v164H64z" fill="#1f6f5b"/>
  <path d="M68 312c49-36 88-51 124-46 44 6 71 39 116 43 42 4 78-17 136-61v74c-55 39-101 54-148 45-47-8-73-39-118-41-32-1-66 12-110 45z" fill="#2aa7a0"/>
  <path d="M236 315c18-87 8-148-31-204 63 36 94 90 88 162 30-60 77-92 140-101-57 45-88 96-92 154z" fill="#0b3d34"/>
  <path d="M218 178c-45 1-84 20-119 58 16-62 54-102 114-121-38-22-81-25-130-8 47-40 100-49 159-26z" fill="#256d4f"/>
  <path d="M155 390h198c-24 33-56 50-98 50-42 0-75-17-100-50z" fill="#f4d58d"/>
  <path d="M154 384c43-30 81-45 116-45s69 15 103 45z" fill="#8f5a2a"/>
</svg>
